<!--?xml version="1.0" encoding="utf-8"?-->
<!-- Generator: Adobe Illustrator 18.1.1, SVG Export Plug-In . SVG Version: 6.00 Build 0)  -->

<svg version="1.1" id="_x32_" xmlns="http://www.w3.org/2000/svg" xmlns:xlink="http://www.w3.org/1999/xlink" x="0px" y="0px" viewBox="0 0 512 512" style="width: 256px; height: 256px; opacity: 1;" xml:space="preserve">
<style type="text/css">
	.st0{fill:#4B4B4B;}
</style>
<g>
	<path class="st0" d="M422.052,78.528c-10.584-16.712-28.476-21.816-41.236-23.407c-13.372-1.666-23.608-15.798-27.486-23.307
		c-7.986-15.495-22.767-27.304-41.19-30.78C308.535,0.348,304.85,0,301.191,0c-9.522,0-16.894,2.378-25.685,4.428
		c-5.744,1.326-12.266,4.446-19.51,4.446c-7.245,0-13.758-3.119-19.493-4.446C227.703,2.378,220.339,0,210.817,0
		c-3.658,0-7.345,0.348-10.948,1.033c-18.422,3.476-33.204,15.285-41.208,30.78c-3.86,7.51-14.105,21.642-27.478,23.307
		c-12.76,1.591-30.643,6.695-41.226,23.407c-7.034,10.647-9.037,24.514-9.037,38.948v321.292c0,40.449,32.783,73.232,73.231,73.232
		h203.697c40.439,0,73.232-32.783,73.232-73.232V117.476C431.08,103.042,429.086,89.175,422.052,78.528z M279.787,54.206
		c12.165-10.601,30.616-9.348,41.217,2.818v-0.019c10.601,12.166,9.348,30.643-2.808,41.236
		c-12.166,10.611-30.616,9.33-41.235-2.817C266.368,83.266,267.631,64.816,279.787,54.206z M207.799,47.528
		c15.851-3,31.146,7.418,34.146,23.271c3,15.86-7.428,31.136-23.27,34.146c-15.862,2.991-31.146-7.418-34.156-23.28
		C181.529,65.814,191.947,50.528,207.799,47.528z M125.932,150.104c-12.166-10.593-13.428-29.052-2.826-41.217h0.008
		c10.602-12.166,29.052-13.409,41.217-2.827c12.166,10.62,13.428,29.061,2.818,41.226
		C156.539,159.444,138.098,160.705,125.932,150.104z M350.814,264.918c-16.757,43.696-69.097,25.676-96.914,25.676
		c-27.816,0-80.156,18.02-96.913-25.676c-17.352-45.26,42.588-108.86,96.913-108.86
		C308.216,156.058,368.166,219.659,350.814,264.918z M395.8,133.53c-3.001,15.833-18.286,26.27-34.147,23.252
		c-15.842-3-26.27-18.286-23.269-34.119c3-15.87,18.294-26.28,34.136-23.288C388.381,102.384,398.8,117.668,395.8,133.53z" style="fill: rgb(255, 255, 255);"></path>
</g>
</svg>
